<svg xmlns="http://www.w3.org/2000/svg" viewBox="0 0 32 32" role="img" aria-hidden="true">
  <path fill="#1877F2" d="M16 2.75c-7.24 0-13.12 5.88-13.12 13.12 0 6.55 4.79 11.98 11.06 13v-9.19h-2.98V15.87h2.98v-2.52c0-2.94 1.79-4.55 4.41-4.55 1.26 0 2.35.09 2.67.13v3.09h-1.82c-1.43 0-1.71.68-1.71 1.68v2.2h3.43l-.45 3.81h-2.98V29c6.17-1.08 10.86-6.39 10.86-12.98C29.12 8.63 23.24 2.75 16 2.75Z"/>
  <path fill="#fff" d="M19.9 16.28h-2.5v12.3c-.45.06-.92.09-1.4.09-.51 0-1.01-.04-1.5-.11v-12.28H12.4v-3.88h2.1v-2.48c0-2.01 1.02-4.17 4.26-4.17 1.27 0 2.35.09 2.67.13v3.1h-1.83c-1.43 0-1.71.68-1.71 1.68v1.74h3.44l-.44 3.78Z"/>
</svg>
