<svg xmlns="http://www.w3.org/2000/svg" viewBox="0 0 32 32" role="img" aria-hidden="true">
  <path fill="#1F5A4A" d="M16 2.75C8.76 2.75 2.88 8.63 2.88 15.87c0 7.04 5.57 12.78 12.54 13.1v-7.85c0-.44.23-.85.6-1.07l2.44-1.42a1.26 1.26 0 0 1 1.18-.04l3.78 1.73c1.02-1.7 1.61-3.69 1.61-5.82 0-6.24-5.08-11.32-11.32-11.32Z"/>
  <path fill="#fff" d="M20.84 20.24c-.24-.16-1.41-.87-1.64-.97-.23-.1-.4-.15-.57.15-.17.3-.66.97-.81 1.17-.15.2-.31.24-.58.08-.27-.16-1.11-.52-2.11-1.31-.78-.62-1.3-1.39-1.45-1.62-.15-.23-.02-.39.11-.53.12-.12.27-.31.4-.47.13-.16.17-.27.27-.45.09-.18.05-.34-.01-.48-.06-.14-.56-1.37-.77-1.87-.21-.5-.42-.43-.58-.44-.15-.01-.34-.01-.52-.01-.17 0-.47.07-.71.33-.24.26-.91.89-.91 2.17s.93 2.52 1.06 2.69c.13.17 1.87 2.87 4.54 4.03.63.28 1.13.45 1.52.57.64.2 1.22.17 1.69.11.51-.08 1.52-.63 1.73-1.23.21-.59.21-1.09.15-1.23-.06-.13-.24-.2-.5-.33Z"/>
</svg>
