<svg xmlns="http://www.w3.org/2000/svg" viewBox="0 0 32 32" role="img" aria-hidden="true">
  <path fill="#25D366" d="M16 2.75c-7.24 0-13.12 5.88-13.12 13.12 0 2.34.63 4.61 1.82 6.6L3 29l6.71-1.76a13.06 13.06 0 0 0 6.29 1.61h.01c7.24 0 13.12-5.88 13.12-13.12S23.24 2.75 16 2.75Zm0 23.92h-.01a10.96 10.96 0 0 1-5.51-1.48l-.39-.23-4.11 1.08 1.1-4-.25-.39a10.92 10.92 0 0 1-1.68-5.82c0-6.04 4.92-10.96 10.96-10.96 2.93 0 5.67 1.14 7.74 3.21a10.92 10.92 0 0 1 3.22 7.75c0 6.04-4.92 10.96-10.96 10.96Z"/>
  <path fill="#fff" d="M20.95 17.1c-.29-.15-1.71-.84-1.98-.94-.27-.1-.47-.15-.66.15-.19.29-.76.94-.93 1.13-.17.19-.34.22-.63.07-.29-.15-1.22-.45-2.32-1.43-.86-.77-1.44-1.72-1.61-2.01-.17-.29-.02-.44.13-.59.13-.13.29-.34.44-.52.15-.17.2-.29.3-.49.1-.19.05-.37-.02-.52-.07-.15-.66-1.58-.9-2.16-.24-.58-.48-.5-.66-.51-.17-.01-.37-.01-.57-.01-.19 0-.52.07-.79.37-.27.29-1.03 1-1.03 2.44s1.05 2.83 1.2 3.02c.15.19 2.1 3.2 5.09 4.49.71.31 1.27.5 1.71.64.72.23 1.38.2 1.9.12.58-.09 1.71-.7 1.95-1.37.24-.66.24-1.23.17-1.37-.07-.14-.27-.22-.56-.37Z"/>
</svg>
